<?xml version="1.0" encoding="utf-8"?>
<!-- Generator: Adobe Illustrator 18.0.0, SVG Export Plug-In . SVG Version: 6.00 Build 0)  -->
<!DOCTYPE svg PUBLIC "-//W3C//DTD SVG 1.1//EN" "http://www.w3.org/Graphics/SVG/1.1/DTD/svg11.dtd" [
	<!ENTITY ns_flows "http://ns.adobe.com/Flows/1.0/">
	<!ENTITY ns_extend "http://ns.adobe.com/Extensibility/1.0/">
	<!ENTITY ns_ai "http://ns.adobe.com/AdobeIllustrator/10.0/">
	<!ENTITY ns_graphs "http://ns.adobe.com/Graphs/1.0/">
]>
<svg version="1.1" id="Layer_1" xmlns:x="&ns_extend;" xmlns:i="&ns_ai;" xmlns:graph="&ns_graphs;"
	 xmlns="http://www.w3.org/2000/svg" xmlns:xlink="http://www.w3.org/1999/xlink" xmlns:a="http://ns.adobe.com/AdobeSVGViewerExtensions/3.0/"
	 x="0px" y="0px" width="134.6px" height="89.4px" viewBox="0 0 134.6 89.4" style="enable-background:new 0 0 134.6 89.4;"
	 xml:space="preserve">
<g>
	<path style="fill:#FFFFFF;" d="M69.4,66.6c-0.9,1.7-2.2,3.2-3.8,4.1c-2.7,4.4-8.3,6-13,3.8c-3.5-1.7-5.6-5.3-5.6-9
		c0-1.5,0.3-3,1-4.4l0.5-1l-0.3-0.5l-3.4,6.9c-0.8,1.7-2.2,3.2-3.8,4.1c-2.7,4.4-8.3,6-12.9,3.8c-3.6-1.7-5.7-5.3-5.7-9
		c0-1.5,0.4-3,1-4.4l0.5-1L22.1,56c-1.2-0.1-2.4-0.4-3.5-1c-2-1-3.5-2.6-4.4-4.6L4,29.9c-2.3-4.7-0.5-10.3,3.8-13
		c1-1.5,2.4-2.9,4.2-3.8c5-2.4,10.9-0.4,13.3,4.6l9.8,20l4.5-9.2c0.8-1.8,2.2-3.2,3.8-4.1c2.6-4.4,8.3-6,12.9-3.8
		c3.6,1.7,5.7,5.3,5.7,9c0,1.4-0.4,3-1.1,4.3l0.4,0.4l6.5-13.1c0.8-1.8,2.2-3.2,3.8-4.2c2.7-4.4,8.3-6,12.9-3.8
		c5,2.4,7,8.5,4.6,13.4L69.4,66.6z M86,25.1c1.6-3.3,0.3-7.3-3.1-8.9c-3.3-1.6-7.3-0.3-8.9,3.1l-16.1,33l-4.9-9.9l4.9-9.9
		c1.6-3.3,0.3-7.3-3.1-8.9c-3.3-1.6-7.3-0.3-8.9,3.1L33.4,52.2l-2.3-4.7c2-2,2.7-5,1.4-7.7L22.4,19.3c-1.6-3.3-5.6-4.7-8.9-3.1
		c-3.3,1.6-4.7,5.6-3.1,8.9l10.1,20.5c1.4,2.7,4.2,4.1,7,3.7l3.7,7.5L30,59.3c-1.6,3.3-0.3,7.4,3.1,9c3.3,1.6,7.3,0.2,8.9-3.2
		L50.8,47l4.9,9.8l-1.3,2.4c-1.6,3.3-0.2,7.4,3.2,9c3.2,1.6,7.3,0.2,8.9-3.2L86,25.1z"/>
	<path style="fill:#FFFFFF;" d="M126.9,30.7c-1.7,3-5,4.9-8.6,4.9h-3.4c-0.9,0-1.9,0.2-2.7,0.5c-0.4,0.8-0.6,1.8-0.6,2.8v23.3
		c0,3.6-1.8,6.8-4.8,8.6c-1.6,2.9-5,4.8-8.6,4.8c-5.5,0-10-4.5-10-10V42.3c0-7.2,2.8-13.9,7.8-18.9c0.5-0.5,1.1-1.1,1.7-1.6
		c0.5-0.5,1.1-1.2,1.6-1.7c5-5,11.7-7.8,18.8-7.8h3.4c5.5,0,10,4.5,10,10C131.6,25.8,129.8,29.1,126.9,30.7z M121.7,15.5h-3.4
		c-12.9,0-23.3,10.4-23.3,23.4v23.3c0,3.7,3,6.7,6.7,6.7c3.7,0,6.7-3,6.7-6.7V38.9c0-5.6,4.5-10.1,10-10.1h3.4c3.7,0,6.7-3,6.7-6.7
		C128.3,18.5,125.3,15.5,121.7,15.5z"/>
</g>
<g>
</g>
<g>
</g>
<g>
</g>
<g>
</g>
<g>
</g>
<g>
</g>
</svg>
